<svg width="430" height="430" viewBox="0 0 430 430" fill="none" xmlns="http://www.w3.org/2000/svg">
<path d="M214.873 428.746C332.991 428.746 428.746 332.991 428.746 214.873C428.746 96.7541 332.991 1 214.873 1C96.7541 1 1 96.7541 1 214.873C1 332.991 96.7541 428.746 214.873 428.746Z" stroke="#141413" stroke-opacity="0.6" stroke-miterlimit="10"/>
<path d="M214.873 428.746C274.299 428.746 322.473 332.991 322.473 214.873C322.473 96.7541 274.299 1 214.873 1C155.447 1 107.272 96.7541 107.272 214.873C107.272 332.991 155.447 428.746 214.873 428.746Z" stroke="#141413" stroke-opacity="0.6" stroke-miterlimit="10"/>
<path d="M214.873 322.473C332.991 322.473 428.746 274.299 428.746 214.873C428.746 155.447 332.991 107.272 214.873 107.272C96.7541 107.272 1 155.447 1 214.873C1 274.299 96.7541 322.473 214.873 322.473Z" stroke="#141413" stroke-opacity="0.6" stroke-miterlimit="10"/>
<path d="M213.544 6.3136V423.432" stroke="#141413" stroke-opacity="0.6" stroke-miterlimit="10" stroke-linecap="round"/>
</svg>
