<svg width="28" height="28" viewBox="0 0 28 28" fill="none" xmlns="http://www.w3.org/2000/svg">
<path d="M15.7037 2.07407C15.7037 1.62222 15.5242 1.18888 15.2047 0.869372C14.8852 0.549866 14.4518 0.370369 14 0.370369C13.5481 0.370369 13.1148 0.549866 12.7953 0.869372C12.4758 1.18888 12.2963 1.62222 12.2963 2.07407V3.77778C12.2963 4.22963 12.4758 4.66297 12.7953 4.98248C13.1148 5.30198 13.5481 5.48148 14 5.48148C14.4518 5.48148 14.8852 5.30198 15.2047 4.98248C15.5242 4.66297 15.7037 4.22963 15.7037 3.77778V2.07407Z" fill="#22BBDD"/>
<path d="M23.6378 6.77118C23.9482 6.44986 24.1199 6.0195 24.116 5.5728C24.1121 5.12609 23.933 4.69878 23.6171 4.3829C23.3012 4.06702 22.8739 3.88784 22.4272 3.88396C21.9805 3.88008 21.5501 4.0518 21.2288 4.36215L20.0243 5.56666C19.7139 5.88799 19.5422 6.31835 19.5461 6.76505C19.55 7.21176 19.7291 7.63907 20.045 7.95495C20.3609 8.27083 20.7882 8.45001 21.2349 8.45389C21.6816 8.45777 22.112 8.28605 22.4333 7.9757L23.6378 6.77118Z" fill="#22BBDD"/>
<path d="M27.6297 14C27.6297 14.4519 27.4502 14.8852 27.1307 15.2047C26.8112 15.5242 26.3778 15.7037 25.926 15.7037H24.2223C23.7704 15.7037 23.3371 15.5242 23.0176 15.2047C22.6981 14.8852 22.5186 14.4519 22.5186 14C22.5186 13.5481 22.6981 13.1148 23.0176 12.7953C23.3371 12.4758 23.7704 12.2963 24.2223 12.2963H25.926C26.3778 12.2963 26.8112 12.4758 27.1307 12.7953C27.4502 13.1148 27.6297 13.5481 27.6297 14Z" fill="#22BBDD"/>
<path d="M5.56668 7.9757C5.72384 8.13842 5.91184 8.26821 6.11969 8.3575C6.32755 8.44679 6.55111 8.49379 6.77733 8.49576C7.00355 8.49772 7.22789 8.45462 7.43727 8.36895C7.64665 8.28329 7.83687 8.15678 7.99683 7.99682C8.1568 7.83685 8.2833 7.64663 8.36897 7.43725C8.45463 7.22787 8.49774 7.00353 8.49577 6.77731C8.49381 6.5511 8.44681 6.32754 8.35752 6.11968C8.26823 5.91182 8.13844 5.72383 7.97572 5.56666L6.7712 4.36215C6.44988 4.0518 6.01952 3.88008 5.57281 3.88396C5.12611 3.88784 4.69879 4.06702 4.38291 4.3829C4.06703 4.69878 3.88786 5.12609 3.88398 5.5728C3.88009 6.0195 4.05182 6.44986 4.36216 6.77118L5.56668 7.9757Z" fill="#22BBDD"/>
<path d="M5.48147 14C5.48147 14.4519 5.30198 14.8852 4.98247 15.2047C4.66296 15.5242 4.22962 15.7037 3.77777 15.7037H2.07407C1.62221 15.7037 1.18887 15.5242 0.869365 15.2047C0.549858 14.8852 0.370361 14.4519 0.370361 14C0.370361 13.5481 0.549858 13.1148 0.869365 12.7953C1.18887 12.4758 1.62221 12.2963 2.07407 12.2963H3.77777C4.22962 12.2963 4.66296 12.4758 4.98247 12.7953C5.30198 13.1148 5.48147 13.5481 5.48147 14Z" fill="#22BBDD"/>
<path d="M10.5925 24.2222V22.5185H17.4073V24.2222C17.4073 25.1259 17.0483 25.9926 16.4093 26.6316C15.7703 27.2706 14.9036 27.6296 13.9999 27.6296C13.0962 27.6296 12.2295 27.2706 11.5905 26.6316C10.9515 25.9926 10.5925 25.1259 10.5925 24.2222Z" fill="#22BBDD"/>
<path d="M17.4074 20.8148C17.433 20.2356 17.7618 19.7142 18.2201 19.3513C19.332 18.4744 20.1432 17.2728 20.5408 15.9135C20.9383 14.5543 20.9026 13.105 20.4385 11.767C19.9743 10.429 19.1049 9.26889 17.951 8.44783C16.7972 7.62676 15.4162 7.18557 14 7.18557C12.5838 7.18557 11.2028 7.62676 10.0489 8.44783C8.89507 9.26889 8.02566 10.429 7.56154 11.767C7.09742 13.105 7.06166 14.5543 7.45923 15.9135C7.8568 17.2728 8.66795 18.4744 9.77992 19.3513C10.2399 19.7142 10.567 20.2356 10.5909 20.8148H17.4091H17.4074Z" fill="#22BBDD"/>
</svg>
