<svg width="178" height="36" viewBox="0 0 178 36" fill="none" xmlns="http://www.w3.org/2000/svg">
<path d="M77.8182 4.41559L77.3506 3.06494H76.6753V5.14286H77.1428V3.63637L77.6623 5.14286H77.974L78.4935 3.63637V5.14286H78.961V3.06494H78.3376L77.8182 4.41559Z" fill="white"/>
<path d="M74.8052 3.42858H75.3766V5.14286H75.8441V3.42858H76.4156V3.06494H74.8052V3.42858Z" fill="white"/>
<path d="M66.2338 2.23377C61.5065 2.23377 58.8052 4.83117 57.7662 8V4.88312L54.026 0V8.05195C52.987 4.88312 50.2857 2.28571 45.5584 2.28571C40.7273 2.28571 38.026 4.98701 37.039 8.31169C36.0519 4.98701 33.2987 2.23377 28.4675 2.23377C22.2857 2.23377 19.5325 6.7013 19.5325 11.1688C19.5325 12.8312 19.8961 14.4935 20.7273 15.8961C20.1558 16.2078 19.4805 16.3636 18.5974 16.3636C16.2078 16.3636 15.0649 15.2208 15.0649 12.9351V9.14286L19.3247 3.94805H15.0649V0L11.1688 4.77922V13.0909C11.1688 13.1948 11.1688 13.2987 11.1688 13.4026C11.1688 13.3506 11.1688 13.2987 11.1688 13.2987C11.2208 15.4805 9.76623 16.4675 7.48052 16.4675C5.09091 16.4675 3.94805 15.3247 3.94805 13.039L3.8961 3.94805H0L0.051948 13.2468C0.051948 17.5065 2.80519 20.0519 7.48052 20.0519C9.81818 20.0519 11.8961 19.3247 13.1429 18.1299C14.4416 19.3247 16.2597 19.9481 18.5974 19.9481C20.5195 19.9481 22.0779 19.4805 23.3247 18.7013C24.6753 19.5844 26.3896 20.1039 28.5195 20.1039C32.9351 20.1039 35.6364 17.8182 36.7792 14.9091V21.4545L40.4156 26.2857V18.3377C41.7662 19.1688 43.4805 20.1039 45.5584 20.1039C50.2338 20.1039 52.987 17.5065 54.026 14.3377V20.1039H57.7662V14.2857C58.8052 17.4545 61.5065 20.0519 66.2338 20.0519C68.3636 20.0519 70.0779 19.5325 71.4286 18.6494V20.0519H75.1169L75.1688 11.7922C75.1688 11.5844 75.1688 11.3247 75.1688 11.1169C75.1688 6.75325 72.4156 2.23377 66.2338 2.23377ZM28.4675 16.4156C25.4026 16.4156 23.4805 14.3377 23.4805 11.1688C23.4805 8 25.4545 5.92208 28.4675 5.92208C31.4805 5.92208 33.4545 8 33.4545 11.1688C33.4545 14.3377 31.5325 16.4156 28.4675 16.4156ZM45.5584 16.4156C42.4935 16.4156 40.5714 14.3377 40.5714 11.1688C40.5714 8 42.5454 5.92208 45.5584 5.92208C48.5714 5.92208 50.5455 8 50.5455 11.1688C50.5455 14.3377 48.5714 16.4156 45.5584 16.4156ZM66.2338 16.4156C63.1688 16.4156 61.2467 14.3377 61.2467 11.1688C61.2467 8 63.2208 5.92208 66.2338 5.92208C69.2467 5.92208 71.2208 8 71.2208 11.1688C71.2208 14.3377 69.2467 16.4156 66.2338 16.4156Z" fill="white"/>
<path d="M105.403 3.58447C100.987 3.58447 97.4546 6.80525 97.4546 11.7923C97.4546 16.8312 100.987 20.104 105.403 20.104C108.416 20.104 111.013 18.5975 112.364 16.052L110.909 15.5325C109.766 17.4027 107.74 18.5455 105.403 18.5455C102.026 18.5455 99.2728 16.1559 99.013 12.4676H113.143C113.195 12.2078 113.195 12.0001 113.195 11.7403C113.195 6.80525 109.922 3.58447 105.403 3.58447ZM99.013 11.1169C99.3247 7.48058 102.026 5.14291 105.403 5.14291C108.831 5.14291 111.273 7.42863 111.584 11.1169H99.013Z" fill="white"/>
<path d="M139.273 3.58447C134.857 3.58447 131.325 6.80525 131.325 11.7923C131.325 16.8312 134.857 20.104 139.273 20.104C142.286 20.104 144.883 18.5975 146.234 16.052L144.779 15.5325C143.636 17.4027 141.61 18.5455 139.273 18.5455C135.896 18.5455 133.143 16.1559 132.883 12.4676H147.013C147.065 12.2078 147.065 12.0001 147.065 11.7403C147.065 6.80525 143.792 3.58447 139.273 3.58447ZM132.883 11.065C133.195 7.42863 135.896 5.09097 139.273 5.09097C142.701 5.09097 145.143 7.37668 145.455 11.065H132.883Z" fill="white"/>
<path d="M156.779 11.1169L154.494 10.5975C153.195 10.2858 151.429 9.5585 151.74 7.32473C151.948 5.97408 153.455 5.03902 155.221 5.03902C156.935 5.03902 158.286 5.97408 158.597 7.53253H160.104C159.792 4.93512 157.766 3.58447 155.221 3.58447C152.727 3.58447 150.494 4.98707 150.182 7.16889C149.818 10.7014 152.156 11.6884 154.078 12.104L156.364 12.6234C158.338 13.091 159.065 14.2338 159.065 15.4806C159.065 17.2988 157.558 18.5455 155.117 18.5455C152.312 18.5455 151.325 16.9351 150.857 15.6884H149.455C149.818 18.5455 152.416 20.052 155.013 20.052C158.286 20.052 160.571 18.2338 160.571 15.5325C160.675 13.5585 159.636 11.8442 156.779 11.1169Z" fill="white"/>
<path d="M173.61 11.1169L171.325 10.5975C170.026 10.2858 168.26 9.5585 168.571 7.32473C168.779 5.97408 170.286 5.03902 172.052 5.03902C173.766 5.03902 175.117 5.97408 175.428 7.53253H176.935C176.623 4.93512 174.597 3.58447 172.052 3.58447C169.558 3.58447 167.325 4.98707 167.013 7.16889C166.649 10.7014 168.987 11.6884 170.909 12.104L173.195 12.6234C175.169 13.091 175.896 14.2338 175.896 15.4806C175.896 17.2988 174.39 18.5455 171.948 18.5455C169.143 18.5455 168.156 16.9351 167.688 15.6884H166.286C166.649 18.5455 169.247 20.052 171.844 20.052C175.117 20.052 177.403 18.2338 177.403 15.5325C177.506 13.5585 176.519 11.8442 173.61 11.1169Z" fill="white"/>
<path d="M93.7662 7.37661C92.4675 5.0909 89.8701 3.63635 87.0649 3.63635C82.5454 3.63635 78.9091 7.16882 78.9091 11.8961C78.9091 16.6234 82.5454 20.1039 87.0649 20.1039C89.8701 20.1039 92.5714 18.5974 93.7662 16.2597V17.4026C93.7662 21.2467 92.8311 23.5325 91.2208 24.7792L92.4156 25.974C94.2337 24.4675 95.3246 21.7662 95.3246 17.4026V3.94804H93.7662V7.37661ZM87.0649 18.5454C83.4285 18.5454 80.4675 15.6883 80.4675 11.8961C80.4675 8.10388 83.4285 5.19479 87.0649 5.19479C90.7532 5.19479 93.7662 7.94804 93.7662 11.8961C93.7662 15.8441 90.5974 18.5454 87.0649 18.5454Z" fill="white"/>
<path d="M164.364 3.58447H162.753V20.1559H164.364V3.58447Z" fill="white"/>
<path d="M126.286 4.72728C125.195 3.94806 123.896 3.53247 122.39 3.53247C122.338 3.53247 122.338 3.53247 122.286 3.53247C122.234 3.53247 122.234 3.53247 122.182 3.53247C120.675 3.53247 119.325 3.94806 118.286 4.72728C118.234 4.72728 118.234 4.77922 118.182 4.83117C118.026 4.93507 117.87 5.09091 117.714 5.19481C117.61 5.24676 117.558 5.35065 117.506 5.4026C117.402 5.5065 117.299 5.61039 117.195 5.71429C117.091 5.81818 117.039 5.92208 116.987 6.02598C116.883 6.12987 116.831 6.28572 116.727 6.38961C116.675 6.49351 116.571 6.64935 116.519 6.75325C116.467 6.8052 116.467 6.85715 116.415 6.96104V7.01299C116.364 7.16883 116.26 7.27273 116.208 7.42857C115.844 8.36364 115.584 9.5065 115.636 10.7532V20.1039H117.247V10.7532C117.247 7.94805 118.545 6.02598 120.623 5.4026C121.195 5.24676 121.818 5.14286 122.39 5.14286C123.013 5.14286 123.584 5.24676 124.156 5.4026C126.182 6.07792 127.532 8 127.532 10.7532V20.1039H129.143V10.7532C129.143 9.5065 128.935 8.36364 128.571 7.42857C127.896 6.23377 127.169 5.35065 126.286 4.72728Z" fill="white"/>
<path d="M42.9091 30.8572V31.4806H40.6234V33.0909H42.4416V33.7663H40.6234V35.9481H40V30.9091L42.9091 30.8572Z" fill="white"/>
<path d="M51.8442 30.8052C53.2987 30.8052 54.3896 31.948 54.3896 33.4026C54.3896 34.8052 53.2468 36 51.8442 36C50.3896 36 49.2987 34.8571 49.2987 33.4026C49.2987 32 50.4416 30.8052 51.8442 30.8052ZM51.8442 35.3247C52.8831 35.3247 53.7143 34.4935 53.7143 33.4026C53.7143 32.3117 52.8831 31.4805 51.8442 31.4805C50.8052 31.4805 49.974 32.3636 49.974 33.4026C49.974 34.4935 50.8052 35.3247 51.8442 35.3247Z" fill="white"/>
<path d="M64.3118 34.1819V30.8572H64.9871V34.1819C64.9871 35.2728 64.1559 36 63.117 36C62.1299 36 61.2468 35.2728 61.2468 34.1819V30.8572H61.9221V34.1819C61.9221 34.8572 62.4416 35.3247 63.065 35.3247C63.6884 35.3247 64.3118 34.9091 64.3118 34.1819Z" fill="white"/>
<path d="M75.1688 35.948L72.8831 32.1558V35.948H72.2078V30.9091H72.8831L75.1688 34.7013V30.9091H75.8441V35.948H75.1688Z" fill="white"/>
<path d="M83.0649 35.948V30.9091H85.039C86.4935 30.9091 87.3247 32 87.3247 33.4545C87.3247 34.8571 86.4935 35.948 85.039 35.948H83.0649ZM84.987 35.2727C86.026 35.2727 86.5974 34.4415 86.5974 33.4026C86.5974 32.3636 86.0779 31.4805 84.987 31.4805H83.6883V35.2727H84.987Z" fill="white"/>
<path d="M94.7532 34.6493L94.2857 35.948H93.5065L95.4286 30.9091H96.1558L98.0779 35.948H97.3506L96.8831 34.6493H94.7532ZM96.6234 34.0259L95.7922 31.7922L94.961 34.0259H96.6234Z" fill="white"/>
<path d="M107.636 30.8572V31.4806H106.13V35.8961H105.454V31.4806H103.948V30.8572C103.948 30.8572 107.636 30.8572 107.636 30.8572Z" fill="white"/>
<path d="M115.065 30.8572V35.8961H114.39V30.8572C114.39 30.8572 115.065 30.8572 115.065 30.8572Z" fill="white"/>
<path d="M124.519 30.8052C125.974 30.8052 127.065 31.948 127.065 33.4026C127.065 34.8052 125.922 36 124.519 36C123.065 36 121.974 34.8571 121.974 33.4026C121.974 32 123.065 30.8052 124.519 30.8052ZM124.519 35.3247C125.558 35.3247 126.39 34.4935 126.39 33.4026C126.39 32.3117 125.558 31.4805 124.519 31.4805C123.48 31.4805 122.649 32.3636 122.649 33.4026C122.649 34.4935 123.48 35.3247 124.519 35.3247Z" fill="white"/>
<path d="M136.987 35.948L134.701 32.1558V35.948H134.026V30.9091H134.701L136.987 34.7013V30.9091H137.662V35.948H136.987Z" fill="white"/>
</svg>
